<?xml version="1.0" encoding="UTF-8"?>
<svg id="Layer_1" data-name="Layer 1" xmlns="http://www.w3.org/2000/svg" viewBox="0 0 769.44 100">
  <defs>
    <style>
      .cls-1 {
        fill: #f1f2f2;
      }

      .cls-1, .cls-2, .cls-3, .cls-4, .cls-5 {
        stroke-width: 0px;
      }

      .cls-2 {
        fill: #000;
      }

      .cls-3 {
        fill: #e6e7e8;
      }

      .cls-4 {
        fill: #d1d3d4;
      }

      .cls-5 {
        fill: #fff;
      }
    </style>
  </defs>
  <g>
    <path class="cls-5" d="M178.8,55.5c2.37,3.1,3.55,6.68,3.55,10.75,0,6.2-2.05,10.98-6.15,14.35-4.1,3.37-9.98,5.05-17.65,5.05h-37.1V14.85h36.1c7.2,0,12.87,1.57,17,4.7,4.13,3.13,6.2,7.7,6.2,13.7,0,4.13-1.08,7.62-3.25,10.45-2.17,2.83-5.05,4.72-8.65,5.65,4.27,1,7.58,3.05,9.95,6.15ZM143.65,42.45h8.6c2,0,3.48-.4,4.45-1.2.97-.8,1.45-2.03,1.45-3.7s-.48-3.02-1.45-3.85c-.97-.83-2.45-1.25-4.45-1.25h-8.6v10ZM158.2,66.7c.97-.77,1.45-2.02,1.45-3.75,0-3.4-1.97-5.1-5.9-5.1h-10.1v10h10.1c2,0,3.48-.38,4.45-1.15Z"/>
    <path class="cls-5" d="M206,81.65c-5.57-3.13-9.99-7.47-13.25-13-3.27-5.53-4.9-11.77-4.9-18.7s1.63-13.17,4.9-18.7c3.27-5.53,7.68-9.85,13.25-12.95,5.56-3.1,11.68-4.65,18.35-4.65s12.77,1.55,18.3,4.65,9.92,7.42,13.15,12.95c3.23,5.53,4.85,11.77,4.85,18.7s-1.62,13.17-4.85,18.7c-3.23,5.53-7.63,9.87-13.2,13-5.57,3.13-11.65,4.7-18.25,4.7s-12.79-1.57-18.35-4.7ZM234.55,61.4c2.4-2.83,3.6-6.65,3.6-11.45s-1.2-8.72-3.6-11.55c-2.4-2.83-5.8-4.25-10.2-4.25s-7.9,1.42-10.3,4.25c-2.4,2.83-3.6,6.68-3.6,11.55s1.2,8.62,3.6,11.45c2.4,2.83,5.83,4.25,10.3,4.25s7.8-1.42,10.2-4.25Z"/>
    <path class="cls-5" d="M314.05,74.95h-23.6l-3.5,10.7h-23.3l25.9-70.8h25.6l25.8,70.8h-23.4l-3.5-10.7ZM308.65,58.25l-6.4-19.7-6.4,19.7h12.8Z"/>
    <path class="cls-5" d="M381.55,85.65l-13.3-25.4h-.1v25.4h-22.2V14.85h33c5.73,0,10.63,1.02,14.7,3.05,4.07,2.03,7.12,4.8,9.15,8.3,2.03,3.5,3.05,7.45,3.05,11.85,0,4.73-1.32,8.93-3.95,12.6-2.63,3.67-6.42,6.3-11.35,7.9l15.4,27.1h-24.4ZM368.15,45.45h8.8c2.13,0,3.73-.48,4.8-1.45,1.07-.97,1.6-2.48,1.6-4.55,0-1.87-.55-3.33-1.65-4.4-1.1-1.07-2.68-1.6-4.75-1.6h-8.8v12Z"/>
    <path class="cls-5" d="M461.9,19.35c5.57,3,9.85,7.17,12.85,12.5,3,5.33,4.5,11.4,4.5,18.2s-1.5,12.8-4.5,18.2c-3,5.4-7.28,9.65-12.85,12.75-5.57,3.1-12.05,4.65-19.45,4.65h-29.5V14.85h29.5c7.4,0,13.88,1.5,19.45,4.5ZM452.35,61.75c2.93-2.73,4.4-6.63,4.4-11.7s-1.47-8.97-4.4-11.7c-2.93-2.73-6.9-4.1-11.9-4.1h-5.3v31.6h5.3c5,0,8.97-1.37,11.9-4.1Z"/>
    <path class="cls-5" d="M572.35,14.85v70.8h-22.1v-35.3l-10.9,35.3h-19l-10.9-35.3v35.3h-22.2V14.85h27.2l15.6,42.5,15.2-42.5h27.1Z"/>
    <path class="cls-5" d="M627.75,74.95h-23.6l-3.5,10.7h-23.3l25.9-70.8h25.6l25.8,70.8h-23.4l-3.5-10.7ZM622.35,58.25l-6.4-19.7-6.4,19.7h12.8Z"/>
    <path class="cls-5" d="M715.25,14.85v17.6h-18.8v53.2h-22.2v-53.2h-18.6V14.85h59.6Z"/>
    <path class="cls-5" d="M743.45,32.55v8.7h22v16.7h-22v10h25v17.7h-47.2V14.85h47.2v17.7h-25Z"/>
  </g>
  <g>
    <polygon class="cls-1" points="50 61.8 50 100.25 83.3 81.02 83.3 42.57 50 61.8"/>
    <polygon class="cls-3" points="16.7 42.57 16.7 81.02 50 100.25 50 61.8 16.7 42.57"/>
    <polygon class="cls-2" points="50 50.25 6.7 25.25 6.7 75.25 16.7 81.02 16.7 44.57 50 63.8 83.3 44.57 83.3 81.02 93.3 75.25 93.3 25.25 50 50.25"/>
    <polygon class="cls-4" points="83.3 19.48 50 .25 16.7 19.48 6.7 25.25 50 50.25 93.3 25.25 83.3 19.48"/>
  </g>
</svg>